<!-- icon666.com - MILLIONS vector ICONS FREE --><svg version="1.1" id="Capa_1" xmlns="http://www.w3.org/2000/svg" xmlns:xlink="http://www.w3.org/1999/xlink" x="0px" y="0px" viewBox="0 0 569.868 569.868" style="enable-background:new 0 0 569.868 569.868;" xml:space="preserve"><g><path d="M414.151,0H155.716c-21.238,0-38.422,17.212-38.422,38.441v492.976c0,21.238,17.184,38.451,38.422,38.451h258.427 c21.219,0,38.432-17.213,38.432-38.451V38.432C452.575,17.203,435.372,0,414.151,0z M179.737,63.418h210.365 c5.852,0,10.586,4.724,10.586,10.567v10.136H169.151V73.985C169.151,68.152,173.884,63.418,179.737,63.418z M284.293,546.382 c-13.378,0-24.203-10.814-24.203-24.184c0-13.358,10.825-24.184,24.203-24.184c13.331,0,24.184,10.825,24.184,24.184 C308.477,535.567,297.624,546.382,284.293,546.382z M390.112,464.097H179.737c-5.853,0-10.586-4.733-10.586-10.586V93.684h231.547 v359.827C400.698,459.363,395.954,464.097,390.112,464.097z"></path><path d="M206.406,142.691H353.43c5.277,0,9.562-4.274,9.562-9.562v-8.367c0-5.288-4.285-9.562-9.562-9.562H206.406 c-5.278,0-9.562,4.274-9.562,9.562v8.367C196.844,138.417,201.128,142.691,206.406,142.691z"></path><path d="M210.423,425.98h-7.172c-5.279,0-9.562,4.274-9.562,9.562v8.367c0,5.288,4.284,9.562,9.562,9.562h7.172 c5.278,0,9.562-4.274,9.562-9.562v-8.367C219.985,430.265,215.701,425.98,210.423,425.98z"></path><path d="M249.476,425.98h-7.172c-5.279,0-9.562,4.274-9.562,9.562v8.367c0,5.288,4.284,9.562,9.562,9.562h7.172 c5.278,0,9.562-4.274,9.562-9.562v-8.367C259.039,430.265,254.754,425.98,249.476,425.98z"></path><path d="M210.423,380.559h-7.172c-5.279,0-9.562,4.274-9.562,9.562v8.367c0,5.288,4.284,9.562,9.562,9.562h7.172 c5.278,0,9.562-4.274,9.562-9.562v-8.367C219.985,384.843,215.701,380.559,210.423,380.559z"></path><path d="M249.476,380.559h-7.172c-5.279,0-9.562,4.274-9.562,9.562v8.367c0,5.288,4.284,9.562,9.562,9.562h7.172 c5.278,0,9.562-4.274,9.562-9.562v-8.367C259.039,384.843,254.754,380.559,249.476,380.559z"></path><path d="M288.52,425.98h-7.172c-5.278,0-9.562,4.274-9.562,9.562v8.367c0,5.288,4.284,9.562,9.562,9.562h7.172 c5.277,0,9.562-4.274,9.562-9.562v-8.367C298.083,430.265,293.797,425.98,288.52,425.98z"></path><path d="M327.573,425.98h-7.172c-5.279,0-9.562,4.274-9.562,9.562v8.367c0,5.288,4.283,9.562,9.562,9.562h7.172 c5.279,0,9.562-4.274,9.562-9.562v-8.367C337.135,430.265,332.852,425.98,327.573,425.98z"></path><path d="M366.616,425.98h-7.172c-5.277,0-9.562,4.274-9.562,9.562v8.367c0,5.288,4.285,9.562,9.562,9.562h7.172 c5.279,0,9.562-4.274,9.562-9.562v-8.367C376.178,430.265,371.895,425.98,366.616,425.98z"></path><path d="M347.147,74.272c-2.705,0-5.105,1.721-5.977,4.265c-0.096,0.268-0.076,0.554,0.049,0.803 c0.123,0.249,0.334,0.44,0.602,0.536c0.535,0.182,1.158-0.124,1.34-0.65c0.582-1.702,2.189-2.85,3.986-2.85 c1.654,0,3.166,0.975,3.844,2.467c0.068,0.153,0.125,0.296,0.172,0.44c0.135,0.44,0.537,0.727,0.996,0.727 c0.105,0,0.199-0.009,0.324-0.047c0.555-0.182,0.852-0.775,0.67-1.33c-0.076-0.229-0.162-0.449-0.258-0.66 C351.881,75.735,349.614,74.272,347.147,74.272z"></path><path d="M347.147,71.336c-3.738,0-7.086,2.218-8.549,5.661c-0.219,0.536,0.029,1.147,0.564,1.377 c0.506,0.21,1.156-0.047,1.377-0.554c1.129-2.668,3.721-4.389,6.607-4.389c2.572,0,4.953,1.377,6.225,3.624 c0.145,0.239,0.277,0.507,0.393,0.765c0.162,0.382,0.545,0.641,0.967,0.641c0.143,0,0.277-0.029,0.41-0.086 c0.258-0.114,0.459-0.315,0.555-0.564c0.105-0.258,0.105-0.545,0-0.813c-0.143-0.344-0.314-0.679-0.496-1.014 C353.553,73.115,350.465,71.336,347.147,71.336z"></path><path d="M336.954,77.332c0.42,0,0.812-0.249,0.975-0.631c1.578-3.71,5.193-6.11,9.219-6.11c3.873,0,7.439,2.267,9.084,5.776 c0.049,0.115,0.096,0.22,0.154,0.334c0.172,0.392,0.545,0.641,0.965,0.641c0.135,0,0.277-0.029,0.402-0.086 c0.258-0.115,0.459-0.315,0.564-0.583c0.105-0.258,0.105-0.545,0-0.794c-0.059-0.134-0.115-0.268-0.182-0.42 c-1.99-4.236-6.293-6.99-10.979-6.99c-4.877,0-9.256,2.907-11.16,7.392c-0.113,0.249-0.113,0.545,0,0.803 c0.105,0.249,0.307,0.459,0.564,0.564C336.686,77.313,336.819,77.332,336.954,77.332z"></path><path d="M366.579,79.942h15.318c1.014,0,1.836-0.812,1.836-1.826v-0.794h1.34c0.496,0,0.918-0.42,0.918-0.927V72.14 c0-0.517-0.412-0.918-0.918-0.918h-1.34v-0.765c0-1.014-0.822-1.846-1.836-1.846h-15.318c-1.014,0-1.836,0.832-1.836,1.846v7.66 C364.743,79.13,365.565,79.942,366.579,79.942z M366.579,70.457h15.318v7.66h-15.318V70.457z"></path><path d="M368.768,71.824c-0.42,0-0.775,0.334-0.775,0.765v3.375c0,0.431,0.346,0.775,0.775,0.775h0.316 c0.43,0,0.773-0.344,0.773-0.775v-3.375c0-0.43-0.344-0.765-0.773-0.765H368.768z"></path><path d="M372.202,71.824c-0.422,0-0.775,0.334-0.775,0.765v3.375c0,0.431,0.344,0.775,0.775,0.775h0.314 c0.432,0,0.775-0.344,0.775-0.775v-3.375c0-0.43-0.344-0.765-0.775-0.765H372.202z"></path><path d="M375.643,71.824c-0.42,0-0.764,0.334-0.764,0.765v3.375c0,0.431,0.344,0.775,0.764,0.775h0.307 c0.42,0,0.775-0.344,0.775-0.775v-3.375c0-0.43-0.355-0.765-0.775-0.765H375.643z"></path></g></svg>